# xmcd
#
# Track frame offsets:
#	150
#	18957
#	36463
#	52766
#	67284
#	84324
#	98159
#	114999
#	132184
#	146615
#	162057
#	178769
#	190831
#	205860
#	220473
#	237696
#	252183
#	269752
#	285249
#
# Disc length: 4028 seconds
# Revision: 0
# Processed by: cddbd v1.5.2PL0 Copyright (c) Steve Scherf et al.
# Submitted via: dBpowerAMP V12.0
#
DISCID=190fba13
DTITLE=Various Artist - Country Radio May 2011
DYEAR=2011
DGENRE=Country
TTITLE0=Brad Paisley Feat Alabama - Old Alabama
TTITLE1=Taylor Swift - Mean
TTITLE2=Chris Young - Tomorrow
TTITLE3=Kal Hourd - Always Better
TTITLE4=Chris Cummings - Give Me Tonight
TTITLE5=Thompson Square - Are You Gonna Kiss Me Or Not
TTITLE6=Luke Bryan - Country Girl Shake It For Me
TTITLE7=Chad Brownlee - Carried Away
TTITLE8=Dean Brady - People Know You By Your First Name
TTITLE9=Donny Parenteau - My Dirt
TTITLE10=Emerson Drive - Let Your Love Speak
TTITLE11=Codie Prevost - Cruising Song
TTITLE12=George Canyon - Surrender
TTITLE13=Jerry Sereda - Ain't Learned Nothin Yet
TTITLE14=Charlie Major - Through God's Eyes
TTITLE15=Jo Hikk - Not Even A Memory
TTITLE16=Martina McBride - Teenage Daughters
TTITLE17=Shane Yellowbird - I Can Help You With That
TTITLE18=Eric Church - Homeboy
EXTD=
EXTT0=
EXTT1=
EXTT2=
EXTT3=
EXTT4=
EXTT5=
EXTT6=
EXTT7=
EXTT8=
EXTT9=
EXTT10=
EXTT11=
EXTT12=
EXTT13=
EXTT14=
EXTT15=
EXTT16=
EXTT17=
EXTT18=
PLAYORDER=
